<svg id="visual" viewBox="0 0 900 600" width="900" height="600" xmlns="http://www.w3.org/2000/svg" xmlns:xlink="http://www.w3.org/1999/xlink" version="1.1"><rect x="0" y="0" width="900" height="600" fill="#575F80"></rect><path d="M0 465L30 468.5C60 472 120 479 180 463.3C240 447.7 300 409.3 360 382.5C420 355.7 480 340.3 540 331.3C600 322.3 660 319.7 720 329.8C780 340 840 363 870 374.5L900 386L900 601L870 601C840 601 780 601 720 601C660 601 600 601 540 601C480 601 420 601 360 601C300 601 240 601 180 601C120 601 60 601 30 601L0 601Z" fill="#42455B" stroke-linecap="round" stroke-linejoin="miter"></path></svg>